<?xml version="1.0" encoding="UTF-8" standalone="no"?>
<!-- Created with Inkscape (http://www.inkscape.org/) -->
<svg id="svg2" xmlns:rdf="http://www.w3.org/1999/02/22-rdf-syntax-ns#" xmlns="http://www.w3.org/2000/svg" height="119.62mm" width="144.88mm" version="1.1" xmlns:cc="http://creativecommons.org/ns#" xmlns:dc="http://purl.org/dc/elements/1.1/" viewBox="0 0 513.34224 423.86249">
 <defs id="defs4">
  <marker id="marker4644" refY="0" refX="0" overflow="visible" orient="auto">
   <path id="path4646" d="m0 0 5-5-17.5 5 17.5 5-5-5z" fill-rule="evenodd" transform="matrix(-.8 0 0 -.8 -10 0)" stroke="#000" stroke-width="1pt"/>
  </marker>
  <marker id="marker4604" refY="0" refX="0" orient="auto" overflow="visible">
   <path id="path4606" d="m0 0 5-5-17.5 5 17.5 5-5-5z" fill-rule="evenodd" transform="matrix(-.8 0 0 -.8 -10 0)" stroke="#000" stroke-width="1pt"/>
  </marker>
  <marker id="marker4570" refY="0" refX="0" overflow="visible" orient="auto">
   <path id="path4572" d="m0 0 5-5-17.5 5 17.5 5-5-5z" fill-rule="evenodd" transform="matrix(-.8 0 0 -.8 -10 0)" stroke="#000" stroke-width="1pt"/>
  </marker>
  <marker id="Arrow1Lend" refY="0" refX="0" orient="auto" overflow="visible">
   <path id="path4219" d="m0 0 5-5-17.5 5 17.5 5-5-5z" fill-rule="evenodd" transform="matrix(-.8 0 0 -.8 -10 0)" stroke="#000" stroke-width="1pt"/>
  </marker>
 </defs>
 <metadata id="metadata7">
  <rdf:RDF>
   <cc:Work rdf:about="">
    <dc:format>image/svg+xml</dc:format>
    <dc:type rdf:resource="http://purl.org/dc/dcmitype/StillImage"/>
    <dc:title/>
   </cc:Work>
  </rdf:RDF>
 </metadata>
 <g id="layer1" transform="translate(-70.866 -184.25)">
  <g id="g4158">
   <rect id="rect4136" rx="37.177" ry="34.314" height="106.3" width="194.88" y="184.25" x="70.866" fill="#ffda87"/>
   <text id="text4142" style="word-spacing:0px;letter-spacing:0px;text-align:justify" font-size="30px" line-height="125%" y="229.30832" x="111.42721" font-family="&apos;Trebuchet MS&apos;" xml:space="preserve" fill="#000000"><tspan id="tspan4144" y="229.30832" x="111.42721">Program</tspan><tspan id="tspan4146" y="266.80832" x="111.42721">ab-initio</tspan></text>
  </g>
  <g id="g4164" transform="translate(-310.82 203.15)">
   <rect id="rect4138" rx="37.177" ry="34.314" height="159.45" width="194.88" y="158.27" x="381.69" fill="#ffda87"/>
   <text id="text4148" style="word-spacing:0px;letter-spacing:0px;text-anchor:middle;text-align:center" font-size="30px" line-height="125%" y="208.47926" x="479.47562" font-family="&apos;Trebuchet MS&apos;" xml:space="preserve" fill="#000000"><tspan id="tspan4150" y="208.47926" x="479.47562">Ekstrakcja</tspan><tspan id="tspan4152" y="245.97926" x="483.98734">wielkości </tspan><tspan id="tspan4154" y="283.47925" x="479.47562">fizycznych</tspan></text>
  </g>
  <g id="g4196" transform="translate(265.31 -124.33)">
   <rect id="rect4156" rx="37.177" ry="34.314" height="194.88" width="230.31" y="361.42" x="88.583" fill="#ffda87"/>
   <text id="text4171" style="word-spacing:0px;letter-spacing:0px;text-anchor:middle;text-align:center" font-size="30px" line-height="125%" y="410.59167" x="204.23088" font-family="&apos;Trebuchet MS&apos;" xml:space="preserve" fill="#000000"><tspan id="tspan4175" y="410.59167" x="204.23088">Wizualizacja</tspan><tspan id="tspan4179" y="448.09167" x="204.23088">i analiza</tspan><tspan id="tspan4181" y="485.59167" x="204.23088">uzyskanych</tspan><tspan id="tspan4183" y="523.09167" x="204.23088">wyników</tspan></text>
  </g>
  <g id="g4191" transform="translate(265.31 -89.917)">
   <rect id="rect4185" rx="37.177" ry="34.314" height="88.583" width="230.31" y="609.45" x="88.583" fill="#ffda87"/>
   <text id="text4187" style="word-spacing:0px;letter-spacing:0px;text-align:justify" font-size="30px" line-height="125%" y="661.72351" x="133.32512" font-family="&apos;Trebuchet MS&apos;" xml:space="preserve" fill="#000000"><tspan id="tspan4189" y="661.72351" x="133.32512">Publikacja</tspan></text>
  </g>
  <g stroke="#000" stroke-width="2" fill="none">
   <path id="path4204" marker-end="url(#Arrow1Lend)" d="m168.31 290.55v70.866"/>
   <path id="path4206" marker-end="url(#marker4570)" d="m265.75 406.6 88.14-31.25"/>
   <path id="path4208" marker-end="url(#marker4604)" d="m353.89 297.34-90.42-29.21"/>
   <path id="path4210" marker-end="url(#marker4644)" d="m469.05 431.97 0.00001 87.562"/>
  </g>
 </g>
</svg>
